<svg width="28" height="20" viewBox="0 0 28 20" fill="none" xmlns="http://www.w3.org/2000/svg">
    <g clip-path="url(#clip0_7135_2099)">
        <path
            d="M23.4297 1.65789C21.6883 0.890525 19.8208 0.325164 17.8683 0.00135832C17.8327 -0.00489103 17.7972 0.0107264 17.7789 0.0419621C17.5387 0.452184 17.2727 0.987351 17.0864 1.40799C14.9863 1.10606 12.8971 1.10606 10.84 1.40799C10.6537 0.978001 10.378 0.452184 10.1368 0.0419621C10.1185 0.0117686 10.0829 -0.00384885 10.0474 0.00135832C8.09593 0.324129 6.22849 0.88949 4.48596 1.65789C4.47088 1.66414 4.45795 1.67456 4.44937 1.68808C0.907223 6.77013 -0.0631185 11.7273 0.412899 16.6229C0.415052 16.6469 0.429053 16.6698 0.448438 16.6843C2.78544 18.3325 5.04923 19.3331 7.27098 19.9964C7.30654 20.0068 7.34422 19.9943 7.36684 19.9662C7.8924 19.2769 8.36089 18.5502 8.76257 17.7859C8.78627 17.7412 8.76364 17.688 8.7152 17.6703C7.9721 17.3996 7.26452 17.0696 6.58388 16.6948C6.53004 16.6646 6.52573 16.5906 6.57526 16.5552C6.71849 16.4521 6.86176 16.3449 6.99853 16.2366C7.02327 16.2168 7.05775 16.2127 7.08685 16.2252C11.5584 18.1857 16.3993 18.1857 20.8181 16.2252C20.8472 16.2116 20.8816 16.2158 20.9075 16.2356C21.0443 16.3439 21.1875 16.4521 21.3318 16.5552C21.3813 16.5906 21.3781 16.6646 21.3243 16.6948C20.6436 17.0769 19.936 17.3996 19.1919 17.6693C19.1434 17.687 19.1219 17.7412 19.1456 17.7859C19.5559 18.5491 20.0244 19.2759 20.5402 19.9651C20.5618 19.9943 20.6005 20.0068 20.6361 19.9964C22.8686 19.3331 25.1324 18.3325 27.4694 16.6843C27.4899 16.6698 27.5028 16.6479 27.5049 16.624C28.0746 10.964 26.5507 6.04755 23.4652 1.68912C23.4577 1.67456 23.4448 1.66414 23.4297 1.65789ZM9.43032 13.642C8.08408 13.642 6.97482 12.455 6.97482 10.9974C6.97482 9.53969 8.06257 8.35275 9.43032 8.35275C10.8088 8.35275 11.9073 9.55011 11.8858 10.9974C11.8858 12.455 10.798 13.642 9.43032 13.642ZM18.5091 13.642C17.1629 13.642 16.0536 12.455 16.0536 10.9974C16.0536 9.53969 17.1413 8.35275 18.5091 8.35275C19.8876 8.35275 20.9861 9.55011 20.9646 10.9974C20.9646 12.455 19.8876 13.642 18.5091 13.642Z"
            fill="currentColor" />
    </g>
    <defs>
        <clipPath id="clip0_7135_2099">
            <rect width="28" height="20" fill="currentColor" />
        </clipPath>
    </defs>
</svg>