<svg width="20" height="21" viewBox="0 0 20 21" fill="none" xmlns="http://www.w3.org/2000/svg">
<path d="M18.3307 10.4998C18.3307 15.1022 14.5998 18.8332 9.9974 18.8332M18.3307 10.4998C18.3307 5.89746 14.5998 2.1665 9.9974 2.1665M18.3307 10.4998C18.3307 9.11912 14.5998 7.99984 9.9974 7.99984C5.39502 7.99984 1.66406 9.11912 1.66406 10.4998M18.3307 10.4998C18.3307 11.8805 14.5998 12.9998 9.9974 12.9998C5.39502 12.9998 1.66406 11.8805 1.66406 10.4998M9.9974 18.8332C5.39502 18.8332 1.66406 15.1022 1.66406 10.4998M9.9974 18.8332C11.8383 18.8332 13.3307 15.1022 13.3307 10.4998C13.3307 5.89746 11.8383 2.1665 9.9974 2.1665M9.9974 18.8332C8.15645 18.8332 6.66406 15.1022 6.66406 10.4998C6.66406 5.89746 8.15645 2.1665 9.9974 2.1665M1.66406 10.4998C1.66406 5.89746 5.39502 2.1665 9.9974 2.1665" stroke="black" stroke-width="1.25"/>
</svg>
