<svg width="21" height="20" viewBox="0 0 21 20" fill="none" xmlns="http://www.w3.org/2000/svg">
    <g clip-path="url(#clip0_7135_2111)">
        <path
            d="M19.5409 0C19.6188 0.0129534 19.6967 0.0259067 19.7745 0.0518135C20.4364 0.194301 20.9037 0.764249 20.9167 1.42487C20.9167 1.46373 20.9167 1.51554 20.9167 1.5544C20.9167 7.18912 20.9167 12.8238 20.9167 18.4585C20.9167 18.9896 20.735 19.4171 20.2937 19.7409C20.0471 19.9223 19.7745 20 19.4631 20C13.7655 20 8.05488 20 2.35728 20C1.55261 20 0.916656 19.3523 0.916656 18.5492C0.929635 12.8497 0.929635 7.15026 0.929635 1.46373C0.929635 0.725389 1.47474 0.11658 2.21452 0.0388601C2.25345 0.0388601 2.29239 0.0129534 2.3443 0C8.06786 0 13.8044 0 19.5409 0ZM11.598 8.74352C11.598 8.38083 11.5851 8.01813 11.598 7.66839C11.598 7.52591 11.5591 7.47409 11.4034 7.47409C10.5597 7.47409 9.71614 7.47409 8.87253 7.47409C8.72976 7.47409 8.69083 7.51295 8.69083 7.65544C8.69083 10.7383 8.69083 13.8083 8.69083 16.8912C8.69083 17.0337 8.74274 17.0725 8.87253 17.0725C9.74209 17.0725 10.6117 17.0725 11.4942 17.0725C11.7148 17.0725 11.7148 17.0725 11.7148 16.8653C11.7148 15.2979 11.7148 13.7306 11.7148 12.1632C11.7148 11.8523 11.7408 11.5544 11.8057 11.2435C11.9355 10.6088 12.247 10.1166 12.9348 9.96114C13.0906 9.92228 13.2593 9.90933 13.415 9.89637C14.064 9.88342 14.622 10.0907 14.8427 10.8938C14.9335 11.2047 14.9854 11.5415 14.9854 11.8523C14.9984 13.5363 14.9984 15.2073 14.9854 16.8912C14.9854 17.0207 15.0114 17.0725 15.1671 17.0725C16.0627 17.0725 16.9452 17.0725 17.8407 17.0725C17.9705 17.0725 18.0095 17.0207 18.0095 16.9041C17.9965 14.9611 18.0095 13.0052 17.9835 11.0622C17.9835 10.5052 17.8926 9.96114 17.7369 9.43005C17.4514 8.4715 16.8673 7.77202 15.8939 7.44819C15.4916 7.31865 15.0763 7.26684 14.661 7.24093C14.051 7.20207 13.4669 7.29275 12.9089 7.56477C12.3638 7.84974 11.9355 8.23834 11.598 8.74352ZM3.8628 12.2668C3.8628 13.8083 3.8628 15.3497 3.8628 16.8782C3.8628 17.0207 3.90173 17.0725 4.0445 17.0725C4.92704 17.0596 5.7966 17.0725 6.67915 17.0725C6.88681 17.0725 6.88681 17.0725 6.88681 16.8653C6.88681 13.8083 6.88681 10.7513 6.88681 7.6943C6.88681 7.5 6.88681 7.48705 6.69213 7.48705C5.82256 7.48705 4.953 7.48705 4.07045 7.48705C3.8628 7.48705 3.8628 7.48705 3.8628 7.6943C3.8628 9.2228 3.8628 10.7383 3.8628 12.2668ZM5.36831 6.21762C6.31575 6.21762 7.10744 5.42746 7.12042 4.48187C7.12042 3.52332 6.32873 2.73316 5.38129 2.73316C4.43385 2.73316 3.64216 3.52332 3.64216 4.46891C3.62918 5.42746 4.4079 6.21762 5.36831 6.21762Z"
            fill="currentColor" />
    </g>
    <defs>
        <clipPath id="clip0_7135_2111">
            <rect width="20" height="20" fill="currentColor" transform="translate(0.916656)" />
        </clipPath>
    </defs>
</svg>