<svg width="88" height="24" viewBox="0 0 88 24" fill="none" xmlns="http://www.w3.org/2000/svg">
<g id="Frame" clip-path="url(#clip0_2412_48370)">
<g id="Group">
<path id="Vector" d="M12.244 0C5.47343 0 -0.00390625 5.38318 -0.00390625 12.0374C-0.00390625 18.6916 5.47343 24.0748 12.244 24.0748C19.0146 24.0748 24.492 18.6916 24.492 12.0374C24.4159 5.38318 18.9386 0 12.244 0ZM12.244 22.4299C11.2551 22.4299 9.96181 20.9346 9.12499 18.243H15.287C14.4502 20.8598 13.233 22.4299 12.244 22.4299ZM8.74462 16.5981C8.5164 15.4766 8.36425 14.2056 8.28817 12.8598H16.1238C16.0477 14.2056 15.8956 15.4766 15.6674 16.5981H8.74462ZM1.66972 12.8598H6.61454C6.69062 14.2056 6.76669 15.4766 6.99491 16.5981H2.73476C2.12617 15.4019 1.82187 14.1308 1.66972 12.8598ZM12.244 1.64486C13.233 1.64486 14.5263 3.14019 15.3631 5.83178H9.12499C9.96181 3.14019 11.2551 1.64486 12.244 1.64486ZM15.7434 7.47663C15.9717 8.59813 16.1238 9.86916 16.1999 11.215H8.28817C8.36425 9.86916 8.5164 8.59813 8.74462 7.47663H15.7434ZM6.61454 11.215H1.66972C1.7458 9.86916 2.12617 8.59813 2.73476 7.47663H6.99491C6.84277 8.59813 6.69062 9.86916 6.61454 11.215ZM17.7974 12.8598H22.7423C22.6662 14.2056 22.2858 15.4766 21.6772 16.5981H17.4171C17.6453 15.4019 17.7974 14.1308 17.7974 12.8598ZM17.7974 11.215C17.7214 9.86916 17.6453 8.59813 17.4171 7.47663H21.6772C22.2858 8.59813 22.5901 9.86916 22.7423 11.215H17.7974ZM20.6883 5.83178H17.0367C16.6563 4.33645 16.0477 3.06542 15.4391 2.09346C17.5692 2.76635 19.395 4.11215 20.6883 5.83178ZM9.04892 2.09346C8.36425 3.06542 7.83173 4.33645 7.45136 5.83178H3.72373C5.09306 4.11215 6.91884 2.76635 9.04892 2.09346ZM3.72373 18.243H7.37528C7.75566 19.7383 8.36425 21.0093 8.97284 21.9813C6.91884 21.2336 5.09306 19.9626 3.72373 18.243ZM15.3631 21.9065C16.0477 20.9346 16.5803 19.6635 16.9606 18.1682H20.6122C19.395 19.9626 17.5692 21.2336 15.3631 21.9065Z" fill="white"/>
<path id="Vector_2" d="M34.0781 12.0384C34.0781 16.973 38.1861 21.0103 43.207 21.0103H53.3249V18.9916H43.207C39.7076 18.9916 36.7407 16.4496 36.2843 13.0851H53.401V11.0664H36.2082C36.7407 7.70192 39.6315 5.15986 43.1309 5.15986H53.2488V3.06641H43.207C38.1861 3.06641 34.0781 7.10379 34.0781 12.0384Z" fill="white"/>
<path id="Vector_3" d="M75.6151 0C68.8445 0 63.3672 5.38318 63.3672 12.0374C63.3672 18.6916 68.8445 24.0748 75.6151 24.0748C82.3857 24.0748 87.8631 18.6916 87.8631 12.0374C87.8631 5.38318 82.3857 0 75.6151 0ZM75.6151 21.9813C69.9856 21.9813 65.4973 17.4953 65.4973 12.0374C65.4973 6.50467 70.0617 2.09346 75.6151 2.09346C81.2446 2.09346 85.733 6.57944 85.733 12.0374C85.733 17.4953 81.2446 21.9813 75.6151 21.9813Z" fill="white"/>
</g>
</g>
<defs>
<clipPath id="clip0_2412_48370">
<rect width="87.8656" height="24" fill="white"/>
</clipPath>
</defs>
</svg>
