<svg width="23" height="20" viewBox="0 0 23 20" fill="none" xmlns="http://www.w3.org/2000/svg">
    <g clip-path="url(#clip0_7135_2101)">
        <path fill-rule="evenodd" clip-rule="evenodd"
            d="M1.93627 8.60987C7.87008 5.78741 11.8269 3.92667 13.8067 3.02765C19.4594 0.460774 20.634 0.0148807 21.3995 0.000156987C21.5679 -0.00308132 21.9444 0.0424773 22.1883 0.25852C22.3942 0.440943 22.4509 0.687369 22.478 0.860325C22.5051 1.03328 22.5389 1.42728 22.512 1.73514C22.2057 5.249 20.8802 13.7762 20.2059 17.7118C19.9206 19.3771 19.3588 19.9354 18.8149 19.9901C17.6328 20.1088 16.7353 19.1372 15.5904 18.3179C13.7989 17.0358 12.7869 16.2377 11.0479 14.9867C9.03827 13.5408 10.341 12.7462 11.4863 11.4475C11.7861 11.1076 16.9941 5.93584 17.0949 5.46668C17.1075 5.40801 17.1192 5.18929 17.0002 5.0738C16.8812 4.95831 16.7055 4.9978 16.5788 5.02921C16.3991 5.07373 13.5372 7.1389 7.99306 11.2247C7.18072 11.8337 6.44492 12.1304 5.78568 12.1149C5.05891 12.0977 3.6609 11.6663 2.62162 11.2974C1.34691 10.8451 0.333792 10.6059 0.422012 9.83761C0.467962 9.43745 0.972716 9.0282 1.93627 8.60987Z"
            fill="currentColor" />
    </g>
    <defs>
        <clipPath id="clip0_7135_2101">
            <rect width="23" height="20" fill="currentColor" />
        </clipPath>
    </defs>
</svg>