<svg width="29" height="20" viewBox="0 0 29 20" fill="none" xmlns="http://www.w3.org/2000/svg">
    <g clip-path="url(#clip0_7135_2103)">
        <path fill-rule="evenodd" clip-rule="evenodd"
            d="M25.6587 0.613474C26.8822 0.942885 27.8469 1.90759 28.1763 3.13112C28.7881 5.36642 28.7646 10.0252 28.7646 10.0252C28.7646 10.0252 28.7646 14.6605 28.1763 16.8958C27.8469 18.1194 26.8822 19.0841 25.6587 19.4135C23.4234 20.0017 14.4823 20.0017 14.4823 20.0017C14.4823 20.0017 5.56468 20.0017 3.30587 19.3899C2.08234 19.0605 1.11764 18.0958 0.78823 16.8723C0.199997 14.6605 0.199997 10.0017 0.199997 10.0017C0.199997 10.0017 0.199997 5.36642 0.78823 3.13112C1.11764 1.90759 2.10587 0.919356 3.30587 0.589944C5.54115 0.00170898 14.4823 0.00170898 14.4823 0.00170898C14.4823 0.00170898 23.4234 0.00170898 25.6587 0.613474ZM19.07 10.0015L11.6347 14.2839V5.71919L19.07 10.0015Z"
            fill="currentColor" />
    </g>
    <defs>
        <clipPath id="clip0_7135_2103">
            <rect width="29" height="20" fill="currentColor" />
        </clipPath>
    </defs>
</svg>